{
	"asset":{
		"generator":"Khronos glTF Blender I/O v3.5.30",
		"version":"2.0"
	},
	"extensionsUsed":[
		"KHR_materials_specular",
		"KHR_materials_ior"
	],
	"scene":0,
	"scenes":[
		{
			"name":"Scene",
			"nodes":[
				0
			]
		}
	],
	"nodes":[
		{
			"mesh":0,
			"name":"Torus.002"
		}
	],
	"materials":[
		{
			"doubleSided":true,
			"extensions":{
				"KHR_materials_specular":{
					"specularColorFactor":[
						0,
						0,
						0
					]
				},
				"KHR_materials_ior":{
					"ior":1.4500000476837158
				}
			},
			"name":"Material.005",
			"pbrMetallicRoughness":{
				"baseColorTexture":{
					"index":0
				},
				"metallicFactor":0,
				"roughnessFactor":0.5
			}
		}
	],
	"meshes":[
		{
			"name":"Torus.003",
			"primitives":[
				{
					"attributes":{
						"POSITION":0,
						"TEXCOORD_0":1,
						"NORMAL":2
					},
					"indices":3,
					"material":0
				}
			]
		}
	],
	"textures":[
		{
			"sampler":0,
			"source":0
		}
	],
	"images":[
		{
			"bufferView":4,
			"mimeType":"image/png",
			"name":"ColorMapLowRes"
		}
	],
	"accessors":[
		{
			"bufferView":0,
			"componentType":5126,
			"count":1306,
			"max":[
				0.8899363875389099,
				18.59557342529297,
				2.9358229637145996
			],
			"min":[
				-0.8893367052078247,
				-2.318936586380005,
				-2.9350078105926514
			],
			"type":"VEC3"
		},
		{
			"bufferView":1,
			"componentType":5126,
			"count":1306,
			"type":"VEC2"
		},
		{
			"bufferView":2,
			"componentType":5126,
			"count":1306,
			"type":"VEC3"
		},
		{
			"bufferView":3,
			"componentType":5123,
			"count":4878,
			"type":"SCALAR"
		}
	],
	"bufferViews":[
		{
			"buffer":0,
			"byteLength":15672,
			"byteOffset":0,
			"target":34962
		},
		{
			"buffer":0,
			"byteLength":10448,
			"byteOffset":15672,
			"target":34962
		},
		{
			"buffer":0,
			"byteLength":15672,
			"byteOffset":26120,
			"target":34962
		},
		{
			"buffer":0,
			"byteLength":9756,
			"byteOffset":41792,
			"target":34963
		},
		{
			"buffer":0,
			"byteLength":1185843,
			"byteOffset":51548
		}
	],
	"samplers":[
		{
			"magFilter":9728,
			"minFilter":9984
		}
	],
	"buffers":[
		{
			"byteLength":1237392,
			"uri":"data:application/octet-stream;base64,"
		}
	]
}
