{
	"asset":{
		"generator":"Khronos glTF Blender I/O v3.5.30",
		"version":"2.0"
	},
	"extensionsUsed":[
		"KHR_materials_specular",
		"KHR_materials_ior"
	],
	"scene":0,
	"scenes":[
		{
			"name":"Scene",
			"nodes":[
				6
			]
		}
	],
	"nodes":[
		{
			"mesh":0,
			"name":"Rocket",
			"rotation":[
				0.7071067690849304,
				0,
				0,
				0.7071067690849304
			],
			"translation":[
				0,
				8.951118469238281,
				-0.5
			]
		},
		{
			"children":[
				0
			],
			"name":"b.RLRocket",
			"translation":[
				0,
				6.4522294998168945,
				0
			]
		},
		{
			"mesh":1,
			"name":"DaGun.001",
			"rotation":[
				0.7071067690849304,
				0,
				0,
				0.7071067690849304
			],
			"translation":[
				0,
				-1.4361028671264648,
				-0.5
			]
		},
		{
			"children":[
				2
			],
			"name":"b.RLFront",
			"translation":[
				0,
				16.83945083618164,
				0
			]
		},
		{
			"mesh":2,
			"name":"DaGun",
			"rotation":[
				0.7071067690849304,
				0,
				0,
				0.7071067690849304
			],
			"translation":[
				0,
				15.403347969055176,
				-0.5
			]
		},
		{
			"children":[
				1,
				3,
				4
			],
			"name":"b.RLRoot",
			"rotation":[
				-0.7071067690849304,
				0,
				0,
				0.7071067690849304
			],
			"translation":[
				0,
				0.5,
				15.403347969055176
			]
		},
		{
			"children":[
				5
			],
			"name":"Armature"
		}
	],
	"animations":[
		{
			"channels":[
				{
					"sampler":0,
					"target":{
						"node":5,
						"path":"translation"
					}
				},
				{
					"sampler":1,
					"target":{
						"node":5,
						"path":"rotation"
					}
				},
				{
					"sampler":2,
					"target":{
						"node":5,
						"path":"scale"
					}
				},
				{
					"sampler":3,
					"target":{
						"node":1,
						"path":"translation"
					}
				},
				{
					"sampler":4,
					"target":{
						"node":1,
						"path":"rotation"
					}
				},
				{
					"sampler":5,
					"target":{
						"node":1,
						"path":"scale"
					}
				},
				{
					"sampler":6,
					"target":{
						"node":3,
						"path":"translation"
					}
				},
				{
					"sampler":7,
					"target":{
						"node":3,
						"path":"rotation"
					}
				},
				{
					"sampler":8,
					"target":{
						"node":3,
						"path":"scale"
					}
				}
			],
			"name":"Equip",
			"samplers":[
				{
					"input":16,
					"interpolation":"LINEAR",
					"output":17
				},
				{
					"input":16,
					"interpolation":"LINEAR",
					"output":18
				},
				{
					"input":16,
					"interpolation":"LINEAR",
					"output":19
				},
				{
					"input":16,
					"interpolation":"LINEAR",
					"output":20
				},
				{
					"input":16,
					"interpolation":"LINEAR",
					"output":21
				},
				{
					"input":16,
					"interpolation":"LINEAR",
					"output":22
				},
				{
					"input":16,
					"interpolation":"LINEAR",
					"output":23
				},
				{
					"input":16,
					"interpolation":"LINEAR",
					"output":24
				},
				{
					"input":16,
					"interpolation":"LINEAR",
					"output":25
				}
			]
		},
		{
			"channels":[
				{
					"sampler":0,
					"target":{
						"node":5,
						"path":"translation"
					}
				},
				{
					"sampler":1,
					"target":{
						"node":5,
						"path":"rotation"
					}
				},
				{
					"sampler":2,
					"target":{
						"node":5,
						"path":"scale"
					}
				},
				{
					"sampler":3,
					"target":{
						"node":1,
						"path":"translation"
					}
				},
				{
					"sampler":4,
					"target":{
						"node":1,
						"path":"rotation"
					}
				},
				{
					"sampler":5,
					"target":{
						"node":1,
						"path":"scale"
					}
				},
				{
					"sampler":6,
					"target":{
						"node":3,
						"path":"translation"
					}
				},
				{
					"sampler":7,
					"target":{
						"node":3,
						"path":"rotation"
					}
				},
				{
					"sampler":8,
					"target":{
						"node":3,
						"path":"scale"
					}
				}
			],
			"name":"ArmatureAction.001",
			"samplers":[
				{
					"input":26,
					"interpolation":"LINEAR",
					"output":27
				},
				{
					"input":26,
					"interpolation":"LINEAR",
					"output":28
				},
				{
					"input":26,
					"interpolation":"LINEAR",
					"output":29
				},
				{
					"input":26,
					"interpolation":"LINEAR",
					"output":30
				},
				{
					"input":26,
					"interpolation":"LINEAR",
					"output":31
				},
				{
					"input":26,
					"interpolation":"LINEAR",
					"output":32
				},
				{
					"input":26,
					"interpolation":"LINEAR",
					"output":33
				},
				{
					"input":26,
					"interpolation":"LINEAR",
					"output":34
				},
				{
					"input":26,
					"interpolation":"LINEAR",
					"output":35
				}
			]
		},
		{
			"channels":[
				{
					"sampler":0,
					"target":{
						"node":5,
						"path":"translation"
					}
				},
				{
					"sampler":1,
					"target":{
						"node":5,
						"path":"rotation"
					}
				},
				{
					"sampler":2,
					"target":{
						"node":5,
						"path":"scale"
					}
				},
				{
					"sampler":3,
					"target":{
						"node":1,
						"path":"translation"
					}
				},
				{
					"sampler":4,
					"target":{
						"node":1,
						"path":"rotation"
					}
				},
				{
					"sampler":5,
					"target":{
						"node":1,
						"path":"scale"
					}
				},
				{
					"sampler":6,
					"target":{
						"node":3,
						"path":"translation"
					}
				},
				{
					"sampler":7,
					"target":{
						"node":3,
						"path":"rotation"
					}
				},
				{
					"sampler":8,
					"target":{
						"node":3,
						"path":"scale"
					}
				}
			],
			"name":"Shoot",
			"samplers":[
				{
					"input":16,
					"interpolation":"LINEAR",
					"output":36
				},
				{
					"input":16,
					"interpolation":"LINEAR",
					"output":37
				},
				{
					"input":16,
					"interpolation":"LINEAR",
					"output":38
				},
				{
					"input":16,
					"interpolation":"LINEAR",
					"output":39
				},
				{
					"input":16,
					"interpolation":"LINEAR",
					"output":40
				},
				{
					"input":16,
					"interpolation":"LINEAR",
					"output":41
				},
				{
					"input":16,
					"interpolation":"LINEAR",
					"output":42
				},
				{
					"input":16,
					"interpolation":"LINEAR",
					"output":43
				},
				{
					"input":16,
					"interpolation":"LINEAR",
					"output":44
				}
			]
		}
	],
	"materials":[
		{
			"doubleSided":true,
			"extensions":{
				"KHR_materials_specular":{
					"specularColorFactor":[
						0,
						0,
						0
					]
				},
				"KHR_materials_ior":{
					"ior":1.4500000476837158
				}
			},
			"name":"Material.001",
			"pbrMetallicRoughness":{
				"baseColorTexture":{
					"index":0
				},
				"metallicFactor":0
			}
		},
		{
			"doubleSided":true,
			"extensions":{
				"KHR_materials_specular":{
					"specularColorFactor":[
						0,
						0,
						0
					]
				},
				"KHR_materials_ior":{
					"ior":1.4500000476837158
				}
			},
			"name":"Material",
			"pbrMetallicRoughness":{
				"baseColorFactor":[
					0,
					0,
					0,
					1
				],
				"metallicFactor":0
			}
		}
	],
	"meshes":[
		{
			"name":"Cylinder",
			"primitives":[
				{
					"attributes":{
						"POSITION":0,
						"TEXCOORD_0":1,
						"NORMAL":2
					},
					"indices":3
				}
			]
		},
		{
			"name":"Cube.002",
			"primitives":[
				{
					"attributes":{
						"POSITION":4,
						"TEXCOORD_0":5,
						"NORMAL":6
					},
					"indices":7,
					"material":0
				}
			]
		},
		{
			"name":"Cube.001",
			"primitives":[
				{
					"attributes":{
						"POSITION":8,
						"TEXCOORD_0":9,
						"NORMAL":10
					},
					"indices":11,
					"material":0
				},
				{
					"attributes":{
						"POSITION":12,
						"TEXCOORD_0":13,
						"NORMAL":14
					},
					"indices":15,
					"material":1
				}
			]
		}
	],
	"textures":[
		{
			"sampler":0,
			"source":0
		}
	],
	"images":[
		{
			"bufferView":8,
			"mimeType":"image/png",
			"name":"home1"
		}
	],
	"skins":[
		{
			"inverseBindMatrices":45,
			"joints":[
				5,
				1,
				3
			],
			"name":"Armature"
		}
	],
	"accessors":[
		{
			"bufferView":0,
			"componentType":5126,
			"count":117,
			"max":[
				1.034039855003357,
				1.034039855003357,
				10.855779647827148
			],
			"min":[
				-1.034039855003357,
				-1.034039855003357,
				6.195328712463379
			],
			"type":"VEC3"
		},
		{
			"bufferView":1,
			"componentType":5126,
			"count":117,
			"type":"VEC2"
		},
		{
			"bufferView":2,
			"componentType":5126,
			"count":117,
			"type":"VEC3"
		},
		{
			"bufferView":3,
			"componentType":5123,
			"count":468,
			"type":"SCALAR"
		},
		{
			"bufferView":4,
			"componentType":5126,
			"count":652,
			"max":[
				1.8684194087982178,
				1.9692069292068481,
				0.6964893341064453
			],
			"min":[
				-1.8684194087982178,
				-1.5865434408187866,
				-2.926304817199707
			],
			"type":"VEC3"
		},
		{
			"bufferView":5,
			"componentType":5126,
			"count":652,
			"type":"VEC2"
		},
		{
			"bufferView":6,
			"componentType":5126,
			"count":652,
			"type":"VEC3"
		},
		{
			"bufferView":7,
			"componentType":5123,
			"count":1716,
			"type":"SCALAR"
		},
		{
			"bufferView":9,
			"componentType":5126,
			"count":1225,
			"max":[
				1.8959184885025024,
				2.3432869911193848,
				17.48797035217285
			],
			"min":[
				-1.8959184885025024,
				-1.9058327674865723,
				-3
			],
			"type":"VEC3"
		},
		{
			"bufferView":10,
			"componentType":5126,
			"count":1225,
			"type":"VEC2"
		},
		{
			"bufferView":11,
			"componentType":5126,
			"count":1225,
			"type":"VEC3"
		},
		{
			"bufferView":12,
			"componentType":5123,
			"count":3174,
			"type":"SCALAR"
		},
		{
			"bufferView":13,
			"componentType":5126,
			"count":4,
			"max":[
				0.36388829350471497,
				2.2680253982543945,
				12.135551452636719
			],
			"min":[
				-0.36388829350471497,
				1.6893812417984009,
				12.03111743927002
			],
			"type":"VEC3"
		},
		{
			"bufferView":14,
			"componentType":5126,
			"count":4,
			"type":"VEC2"
		},
		{
			"bufferView":15,
			"componentType":5126,
			"count":4,
			"type":"VEC3"
		},
		{
			"bufferView":16,
			"componentType":5123,
			"count":6,
			"type":"SCALAR"
		},
		{
			"bufferView":17,
			"componentType":5126,
			"count":30,
			"max":[
				0.5
			],
			"min":[
				0.016666666666666666
			],
			"type":"SCALAR"
		},
		{
			"bufferView":18,
			"componentType":5126,
			"count":30,
			"type":"VEC3"
		},
		{
			"bufferView":19,
			"componentType":5126,
			"count":30,
			"type":"VEC4"
		},
		{
			"bufferView":20,
			"componentType":5126,
			"count":30,
			"type":"VEC3"
		},
		{
			"bufferView":21,
			"componentType":5126,
			"count":30,
			"type":"VEC3"
		},
		{
			"bufferView":22,
			"componentType":5126,
			"count":30,
			"type":"VEC4"
		},
		{
			"bufferView":23,
			"componentType":5126,
			"count":30,
			"type":"VEC3"
		},
		{
			"bufferView":24,
			"componentType":5126,
			"count":30,
			"type":"VEC3"
		},
		{
			"bufferView":25,
			"componentType":5126,
			"count":30,
			"type":"VEC4"
		},
		{
			"bufferView":26,
			"componentType":5126,
			"count":30,
			"type":"VEC3"
		},
		{
			"bufferView":27,
			"componentType":5126,
			"count":1,
			"max":[
				0.016666666666666666
			],
			"min":[
				0.016666666666666666
			],
			"type":"SCALAR"
		},
		{
			"bufferView":28,
			"componentType":5126,
			"count":1,
			"type":"VEC3"
		},
		{
			"bufferView":29,
			"componentType":5126,
			"count":1,
			"type":"VEC4"
		},
		{
			"bufferView":30,
			"componentType":5126,
			"count":1,
			"type":"VEC3"
		},
		{
			"bufferView":31,
			"componentType":5126,
			"count":1,
			"type":"VEC3"
		},
		{
			"bufferView":32,
			"componentType":5126,
			"count":1,
			"type":"VEC4"
		},
		{
			"bufferView":33,
			"componentType":5126,
			"count":1,
			"type":"VEC3"
		},
		{
			"bufferView":34,
			"componentType":5126,
			"count":1,
			"type":"VEC3"
		},
		{
			"bufferView":35,
			"componentType":5126,
			"count":1,
			"type":"VEC4"
		},
		{
			"bufferView":36,
			"componentType":5126,
			"count":1,
			"type":"VEC3"
		},
		{
			"bufferView":37,
			"componentType":5126,
			"count":30,
			"type":"VEC3"
		},
		{
			"bufferView":38,
			"componentType":5126,
			"count":30,
			"type":"VEC4"
		},
		{
			"bufferView":39,
			"componentType":5126,
			"count":30,
			"type":"VEC3"
		},
		{
			"bufferView":40,
			"componentType":5126,
			"count":30,
			"type":"VEC3"
		},
		{
			"bufferView":41,
			"componentType":5126,
			"count":30,
			"type":"VEC4"
		},
		{
			"bufferView":42,
			"componentType":5126,
			"count":30,
			"type":"VEC3"
		},
		{
			"bufferView":43,
			"componentType":5126,
			"count":30,
			"type":"VEC3"
		},
		{
			"bufferView":44,
			"componentType":5126,
			"count":30,
			"type":"VEC4"
		},
		{
			"bufferView":45,
			"componentType":5126,
			"count":30,
			"type":"VEC3"
		},
		{
			"bufferView":46,
			"componentType":5126,
			"count":3,
			"type":"MAT4"
		}
	],
	"bufferViews":[
		{
			"buffer":0,
			"byteLength":1404,
			"byteOffset":0,
			"target":34962
		},
		{
			"buffer":0,
			"byteLength":936,
			"byteOffset":1404,
			"target":34962
		},
		{
			"buffer":0,
			"byteLength":1404,
			"byteOffset":2340,
			"target":34962
		},
		{
			"buffer":0,
			"byteLength":936,
			"byteOffset":3744,
			"target":34963
		},
		{
			"buffer":0,
			"byteLength":7824,
			"byteOffset":4680,
			"target":34962
		},
		{
			"buffer":0,
			"byteLength":5216,
			"byteOffset":12504,
			"target":34962
		},
		{
			"buffer":0,
			"byteLength":7824,
			"byteOffset":17720,
			"target":34962
		},
		{
			"buffer":0,
			"byteLength":3432,
			"byteOffset":25544,
			"target":34963
		},
		{
			"buffer":0,
			"byteLength":362036,
			"byteOffset":28976
		},
		{
			"buffer":0,
			"byteLength":14700,
			"byteOffset":391012,
			"target":34962
		},
		{
			"buffer":0,
			"byteLength":9800,
			"byteOffset":405712,
			"target":34962
		},
		{
			"buffer":0,
			"byteLength":14700,
			"byteOffset":415512,
			"target":34962
		},
		{
			"buffer":0,
			"byteLength":6348,
			"byteOffset":430212,
			"target":34963
		},
		{
			"buffer":0,
			"byteLength":48,
			"byteOffset":436560,
			"target":34962
		},
		{
			"buffer":0,
			"byteLength":32,
			"byteOffset":436608,
			"target":34962
		},
		{
			"buffer":0,
			"byteLength":48,
			"byteOffset":436640,
			"target":34962
		},
		{
			"buffer":0,
			"byteLength":12,
			"byteOffset":436688,
			"target":34963
		},
		{
			"buffer":0,
			"byteLength":120,
			"byteOffset":436700
		},
		{
			"buffer":0,
			"byteLength":360,
			"byteOffset":436820
		},
		{
			"buffer":0,
			"byteLength":480,
			"byteOffset":437180
		},
		{
			"buffer":0,
			"byteLength":360,
			"byteOffset":437660
		},
		{
			"buffer":0,
			"byteLength":360,
			"byteOffset":438020
		},
		{
			"buffer":0,
			"byteLength":480,
			"byteOffset":438380
		},
		{
			"buffer":0,
			"byteLength":360,
			"byteOffset":438860
		},
		{
			"buffer":0,
			"byteLength":360,
			"byteOffset":439220
		},
		{
			"buffer":0,
			"byteLength":480,
			"byteOffset":439580
		},
		{
			"buffer":0,
			"byteLength":360,
			"byteOffset":440060
		},
		{
			"buffer":0,
			"byteLength":4,
			"byteOffset":440420
		},
		{
			"buffer":0,
			"byteLength":12,
			"byteOffset":440424
		},
		{
			"buffer":0,
			"byteLength":16,
			"byteOffset":440436
		},
		{
			"buffer":0,
			"byteLength":12,
			"byteOffset":440452
		},
		{
			"buffer":0,
			"byteLength":12,
			"byteOffset":440464
		},
		{
			"buffer":0,
			"byteLength":16,
			"byteOffset":440476
		},
		{
			"buffer":0,
			"byteLength":12,
			"byteOffset":440492
		},
		{
			"buffer":0,
			"byteLength":12,
			"byteOffset":440504
		},
		{
			"buffer":0,
			"byteLength":16,
			"byteOffset":440516
		},
		{
			"buffer":0,
			"byteLength":12,
			"byteOffset":440532
		},
		{
			"buffer":0,
			"byteLength":360,
			"byteOffset":440544
		},
		{
			"buffer":0,
			"byteLength":480,
			"byteOffset":440904
		},
		{
			"buffer":0,
			"byteLength":360,
			"byteOffset":441384
		},
		{
			"buffer":0,
			"byteLength":360,
			"byteOffset":441744
		},
		{
			"buffer":0,
			"byteLength":480,
			"byteOffset":442104
		},
		{
			"buffer":0,
			"byteLength":360,
			"byteOffset":442584
		},
		{
			"buffer":0,
			"byteLength":360,
			"byteOffset":442944
		},
		{
			"buffer":0,
			"byteLength":480,
			"byteOffset":443304
		},
		{
			"buffer":0,
			"byteLength":360,
			"byteOffset":443784
		},
		{
			"buffer":0,
			"byteLength":192,
			"byteOffset":444144
		}
	],
	"samplers":[
		{
			"magFilter":9728,
			"minFilter":9984
		}
	],
	"buffers":[
		{
			"byteLength":444336,
			"uri":"data:application/octet-stream;base64,"
		}
	]
}
