{
	"asset":{
		"generator":"Khronos glTF Blender I/O v3.5.30",
		"version":"2.0"
	},
	"extensionsUsed":[
		"KHR_materials_emissive_strength"
	],
	"scene":0,
	"scenes":[
		{
			"name":"Scene",
			"nodes":[
				1
			]
		}
	],
	"nodes":[
		{
			"mesh":0,
			"name":"Proj.Rocket.001",
			"translation":[
				0,
				0,
				0.07247450947761536
			]
		},
		{
			"children":[
				0
			],
			"mesh":1,
			"name":"Proj.Rocket"
		}
	],
	"animations":[
		{
			"channels":[
				{
					"sampler":0,
					"target":{
						"node":0,
						"path":"translation"
					}
				},
				{
					"sampler":1,
					"target":{
						"node":0,
						"path":"rotation"
					}
				},
				{
					"sampler":2,
					"target":{
						"node":0,
						"path":"scale"
					}
				}
			],
			"name":"Loop",
			"samplers":[
				{
					"input":12,
					"interpolation":"LINEAR",
					"output":13
				},
				{
					"input":12,
					"interpolation":"LINEAR",
					"output":14
				},
				{
					"input":12,
					"interpolation":"LINEAR",
					"output":15
				}
			]
		}
	],
	"materials":[
		{
			"doubleSided":true,
			"emissiveFactor":[
				1,
				1,
				1
			],
			"emissiveTexture":{
				"index":0
			},
			"extensions":{
				"KHR_materials_emissive_strength":{
					"emissiveStrength":4.299999237060547
				}
			},
			"name":"Material.004",
			"pbrMetallicRoughness":{
				"baseColorTexture":{
					"index":1
				},
				"metallicFactor":0,
				"roughnessFactor":0.5
			}
		},
		{
			"doubleSided":true,
			"name":"Material.003",
			"pbrMetallicRoughness":{
				"baseColorTexture":{
					"index":2
				},
				"metallicFactor":0,
				"roughnessFactor":0.5
			}
		}
	],
	"meshes":[
		{
			"name":"Cylinder.001",
			"primitives":[
				{
					"attributes":{
						"POSITION":0,
						"TEXCOORD_0":1,
						"NORMAL":2
					},
					"indices":3,
					"material":0
				}
			]
		},
		{
			"name":"Cylinder",
			"primitives":[
				{
					"attributes":{
						"POSITION":4,
						"TEXCOORD_0":5,
						"NORMAL":6
					},
					"indices":7,
					"material":1
				},
				{
					"attributes":{
						"POSITION":8,
						"TEXCOORD_0":9,
						"NORMAL":10
					},
					"indices":11,
					"material":0
				}
			]
		}
	],
	"textures":[
		{
			"sampler":0,
			"source":0
		},
		{
			"sampler":0,
			"source":0
		},
		{
			"sampler":0,
			"source":0
		}
	],
	"images":[
		{
			"bufferView":4,
			"mimeType":"image/png",
			"name":"Home1"
		}
	],
	"accessors":[
		{
			"bufferView":0,
			"componentType":5126,
			"count":14,
			"max":[
				0.7712278366088867,
				0.8905370831489563,
				2.172130584716797
			],
			"min":[
				-0.7712278366088867,
				-0.8905370831489563,
				1.4048354625701904
			],
			"type":"VEC3"
		},
		{
			"bufferView":1,
			"componentType":5126,
			"count":14,
			"type":"VEC2"
		},
		{
			"bufferView":2,
			"componentType":5126,
			"count":14,
			"type":"VEC3"
		},
		{
			"bufferView":3,
			"componentType":5123,
			"count":36,
			"type":"SCALAR"
		},
		{
			"bufferView":5,
			"componentType":5126,
			"count":174,
			"max":[
				0.8679169416427612,
				0.8902372121810913,
				1.5539302825927734
			],
			"min":[
				-0.8679169416427612,
				-0.8902370929718018,
				-2.199094772338867
			],
			"type":"VEC3"
		},
		{
			"bufferView":6,
			"componentType":5126,
			"count":174,
			"type":"VEC2"
		},
		{
			"bufferView":7,
			"componentType":5126,
			"count":174,
			"type":"VEC3"
		},
		{
			"bufferView":8,
			"componentType":5123,
			"count":624,
			"type":"SCALAR"
		},
		{
			"bufferView":9,
			"componentType":5126,
			"count":14,
			"max":[
				0.7012698650360107,
				0.7193042635917664,
				1.436819076538086
			],
			"min":[
				-0.7012698650360107,
				-0.7193043828010559,
				1.436819076538086
			],
			"type":"VEC3"
		},
		{
			"bufferView":10,
			"componentType":5126,
			"count":14,
			"type":"VEC2"
		},
		{
			"bufferView":11,
			"componentType":5126,
			"count":14,
			"type":"VEC3"
		},
		{
			"bufferView":12,
			"componentType":5123,
			"count":36,
			"type":"SCALAR"
		},
		{
			"bufferView":13,
			"componentType":5126,
			"count":10,
			"max":[
				0.4166666666666667
			],
			"min":[
				0.041666666666666664
			],
			"type":"SCALAR"
		},
		{
			"bufferView":14,
			"componentType":5126,
			"count":10,
			"type":"VEC3"
		},
		{
			"bufferView":15,
			"componentType":5126,
			"count":10,
			"type":"VEC4"
		},
		{
			"bufferView":16,
			"componentType":5126,
			"count":10,
			"type":"VEC3"
		}
	],
	"bufferViews":[
		{
			"buffer":0,
			"byteLength":168,
			"byteOffset":0,
			"target":34962
		},
		{
			"buffer":0,
			"byteLength":112,
			"byteOffset":168,
			"target":34962
		},
		{
			"buffer":0,
			"byteLength":168,
			"byteOffset":280,
			"target":34962
		},
		{
			"buffer":0,
			"byteLength":72,
			"byteOffset":448,
			"target":34963
		},
		{
			"buffer":0,
			"byteLength":365039,
			"byteOffset":520
		},
		{
			"buffer":0,
			"byteLength":2088,
			"byteOffset":365560,
			"target":34962
		},
		{
			"buffer":0,
			"byteLength":1392,
			"byteOffset":367648,
			"target":34962
		},
		{
			"buffer":0,
			"byteLength":2088,
			"byteOffset":369040,
			"target":34962
		},
		{
			"buffer":0,
			"byteLength":1248,
			"byteOffset":371128,
			"target":34963
		},
		{
			"buffer":0,
			"byteLength":168,
			"byteOffset":372376,
			"target":34962
		},
		{
			"buffer":0,
			"byteLength":112,
			"byteOffset":372544,
			"target":34962
		},
		{
			"buffer":0,
			"byteLength":168,
			"byteOffset":372656,
			"target":34962
		},
		{
			"buffer":0,
			"byteLength":72,
			"byteOffset":372824,
			"target":34963
		},
		{
			"buffer":0,
			"byteLength":40,
			"byteOffset":372896
		},
		{
			"buffer":0,
			"byteLength":120,
			"byteOffset":372936
		},
		{
			"buffer":0,
			"byteLength":160,
			"byteOffset":373056
		},
		{
			"buffer":0,
			"byteLength":120,
			"byteOffset":373216
		}
	],
	"samplers":[
		{
			"magFilter":9729,
			"minFilter":9987
		}
	],
	"buffers":[
		{
			"byteLength":373336,
			"uri":"data:application/octet-stream;base64,"
		}
	]
}
